/* XPM */
static char *f4e629a5e263492894d8d51a552357316bSiTEHcTti3CzRh[] = {
/* columns rows colors chars-per-pixel */
"50 50 46 1 ",
"  c #8BA0AF",
". c #8EA4B4",
"X c #91A6B6",
"o c #93A8B7",
"O c #95A7B9",
"+ c #96ABBB",
"@ c #99AEBE",
"# c #95B0BE",
"$ c #9BB1BF",
"% c #9BAFC0",
"& c #97B2C0",
"* c #9DB3C3",
"= c #9EB8C7",
"- c #9FBAC8",
"; c #A1B6C5",
": c #A2B9C6",
"> c #A4B7C8",
", c #A5BBCA",
"< c #A9BDCD",
"1 c #ABBFD0",
"2 c #A7C0CF",
"3 c #ABC1CE",
"4 c #B0C7CF",
"5 c #A7C1D0",
"6 c #ADC2D2",
"7 c #AFC8D7",
"8 c #AFC6D8",
"9 c #B1C6D5",
"0 c #B3CAD6",
"q c #B3C7D8",
"w c #B5CBDA",
"e c #B9CEDD",
"r c #BBD1DE",
"t c #BACFE0",
"y c #BDD2E2",
"u c #C0D7DF",
"i c #C1D6E5",
"p c #C4DAE5",
"a c #C2D7E8",
"s c #C5DBEA",
"d c #C9DEED",
"f c #CADFF0",
"g c #CAE0EC",
"h c #CDE3F1",
"j c #D0E6F3",
"k c #D2E8F6",
/* pixels */
"rppppppg00uguuggupggddpgggggghhhsdieddpdghkkjghjhd",
"rrr00uuu434puruupurewewwtryyeripri0,0ryipiiyrrrrww",
"44433444u34uu404rr0009006eyyr7650y06ryip62,-269000",
"0000444rp,:ru444340ewrweyye007weeiy0ww76::=20ee0rw",
"0ruurr0ur,3ryttt00rriyewrwwrriyrepe6009errrpipyerr",
"0000444rp63rwyyywrriyyrw23eryrw70ir9errsydpirrrrr3",
"::$$$$34r6<:*,>>2,,3336002:;$$:,,ww09<::,,::;,,,e0",
"33:::::$9,;@@&%&=@$::*:<2,;:::$@*393::=$:::$;2<=,3",
"risdfdasyyytttttrerryw00rrrydpyyyggiyppdipppppgp40",
"sitettyyyyttyyty09wrrw07yrrrrrre60e76q0rppyrwwrr32",
"tw<;*,,18181qq8,<,,26085re0622690qereeerw0670006<4",
",,,<18ttt8tt8tw60w060w7,6946220ww70we07w066wwwrr40",
"qwwyttyttqqqtttq0eewyyq,6weyeeeeyrwrr09wrerye49r<9",
"yyqtqqq6tq1,,*<1,,>2wye<0wyyewwwrrew0ww9369000wr03",
"%;*****>,6q6<,*,@$+@,61*;*;;%*;*+:,=,,:$$$++@*,24;",
"*>16<>6q*<qttq66,5,>,61,>>;%*;:>:226,0q392,:::,291",
"aaayaafhwq8wttyypdayttytytytyyyyyyr00rspspppprwwuu",
"q1,;,186q66tttqt9tw8161666tqt1q1603::2639990wwww<1",
"11,,>,1<q,<wt1,116q6166<8<16111,2003442,:::::26011",
">1tt6111t,,6q,,6>1qqtt6<ttt68618ww0339wq3909063241",
"q6wtqt1tq11qttttqttttqqqqqqttttq366630rurreer0w0uu",
"=>***<11tq1168qq,166qqqt1,>,<1<,23ww3,,663423,,:11",
"-**%%O&&6,%++%&+XX+%%*=,**&%%%&++=6,$XXo.X$$;,:=;$",
"86t6tq6ttq661111111616666ttq8q8800ww0069wwwrrree11",
"8qtttttqwwtwtwqqtwwwww096qtyytyy0w00rrreewe00000<<",
"qqqt8q66669qqqqtq939qq3,qttq6,<<33233964,::;><99<9",
">1<<1qqq666q6q6q<<,99q92tw6>*%%%3263662,1<,,><19>1",
"1q6<,6qqq66qqwq690339w9:<,>,66qeeww0000e0euwq0qw11",
"ttwqqwtt6866<66699940e9,<0usyyrr0e062,39400eu10q41",
"666119qqqwq6<,<6;;::299,,<392,2,,40w03,2:,::>>0uq1",
"X.X+oOOOo&%=@+++X++o@*:*:@oo@*&@@+$:,3<,;*@O XO@<;",
"1<186116*>16qtww0w0999006639ee00r02,9000weuuuuu11<",
"yq8qq8tyt<>16qtqqre44q44e4e4<141911<>><11100044<q1",
"6,*-=,1161<ttt1<O@;;;><<<><>;>;;;;<>>uu4<>$@@$$;>>",
"<1<<><<>61><<,*O;;;<<><<<><<<>>>><4><<<$X o@;,4q<<",
"111qtqq111-,-,<,1144e<<<114411q9<441>>>;<1449<<,41",
"<<,1611tt8><1ttte4q11<11><<119qq1qq4<<4q96000009<>",
"&*%%%%%%61>*-*%*>;;;;<>1;;@;;OOO;>44>;@@::;$$$$;>>",
"=**%%%**><%*%%%*OOO;;;>><<>>;;OOO@>1<@OO=$=@$$;;<<",
"6tttttttttttttqteerree11eeereeqe4<14eqeurr0w00ww11",
"68qqtt61111116t61q11191%1111111qw75-,,<<<,>><<11*>",
",>,11811<>111111>11>111%>>>>>>>>5555,-,-;***;>><>>",
",,><1111161q688<11><191>11<<<<<>---5,,,-;,111119>>",
"qq11118616q181811q11191>111u1111,2,55566qwq9<><<>,",
"qqww8q6t6181116199119q1<111qq1116552<<86w11<>>1119",
"&>>==**<>,,;==;*;>%;<91<>;%>%;;;==&====&%OO%;><1<<",
".O+OOX%*%%***,*%%@OO%><>%;OOOO@;&=&&;>@O@OO@@@OO><",
"166118tt6>1tttqtqq91<111qqqqq11155-=111uq1u111<<19",
"6qq61161q>,1q6q1qqqq11>>><<>>>><-5-&5,,5<<<1<<>,%>",
"11,*,,>-1,*-,***>><111<>;;;;%%OO&-&&--&&***%*%%%%;"
};
