/* XPM */
static char *_65e409fb2514b04eae6ab7754187b75KPOKysilYvhaqc45[] = {
/* columns rows colors chars-per-pixel */
"16 16 196 2 ",
"   c #884E36",
".  c #8A5038",
"X  c #8B513B",
"o  c #8C523A",
"O  c #8C543B",
"+  c #8B533C",
"@  c #88543F",
"#  c #905841",
"$  c #925840",
"%  c #935941",
"&  c #905A42",
"*  c #935B42",
"=  c #945A42",
"-  c #955C41",
";  c #975E43",
":  c #975D45",
">  c #955D46",
",  c #975D47",
"<  c #985F44",
"1  c #985E46",
"2  c #995F47",
"3  c #905B49",
"4  c #975F48",
"5  c #986047",
"6  c #9D6147",
"7  c #97604B",
"8  c #996148",
"9  c #986049",
"0  c #9A6048",
"q  c #9B6149",
"w  c #99614A",
"e  c #98624A",
"r  c #9B634A",
"t  c #9C6348",
"y  c #9E6248",
"u  c #9D6449",
"i  c #9C644B",
"p  c #9E654A",
"a  c #9B654D",
"s  c #98644F",
"d  c #9C644D",
"f  c #9E644C",
"g  c #9E664D",
"h  c #9D654E",
"j  c #9F674E",
"k  c #9A6650",
"l  c #9C6550",
"z  c #9F6750",
"x  c #9F6853",
"c  c #9C6956",
"v  c #9E6B56",
"b  c #9C6B5A",
"n  c #A16040",
"m  c #A36141",
"M  c #A56446",
"N  c #A86747",
"B  c #A1634A",
"V  c #A0644A",
"C  c #A46449",
"Z  c #A56549",
"A  c #A4674B",
"S  c #A6664A",
"D  c #A1654D",
"F  c #A0674C",
"G  c #A2664C",
"H  c #A3674D",
"J  c #A0664E",
"K  c #A1674F",
"L  c #A1684D",
"P  c #A5684C",
"I  c #A6694D",
"U  c #A76A4D",
"Y  c #AB6949",
"T  c #A96A4B",
"R  c #A9694D",
"E  c #AB6A4C",
"W  c #A86B4F",
"Q  c #AA6A4E",
"!  c #AB6C4D",
"~  c #A06753",
"^  c #A26850",
"/  c #A36951",
"(  c #A26A51",
")  c #A16952",
"_  c #A36B52",
"`  c #A26A53",
"'  c #A66A50",
"]  c #A76B51",
"[  c #A46A52",
"{  c #A56C51",
"}  c #A46C53",
"|  c #A76E53",
" . c #A16A55",
".. c #A56D54",
"X. c #A46C55",
"o. c #A66C54",
"O. c #A76D55",
"+. c #A56D56",
"@. c #A66C56",
"#. c #A76F56",
"$. c #A66E57",
"%. c #AA6D50",
"&. c #AB6F55",
"*. c #A86E56",
"=. c #A96F57",
"-. c #A76F58",
";. c #A97055",
":. c #AB7257",
">. c #AE7154",
",. c #AC7056",
"<. c #A67058",
"1. c #A5715B",
"2. c #A4715C",
"3. c #A97158",
"4. c #AA7058",
"5. c #AB7159",
"6. c #AA7259",
"7. c #A9715A",
"8. c #A8725A",
"9. c #AA725B",
"0. c #AC7358",
"q. c #AF7359",
"w. c #AC725A",
"e. c #AD735B",
"r. c #AB735C",
"t. c #AA745C",
"y. c #AD755C",
"u. c #AC745D",
"i. c #AE745C",
"p. c #AD755E",
"a. c #AC765E",
"s. c #B17052",
"d. c #B47355",
"f. c #B17458",
"g. c #B17559",
"h. c #B1755B",
"j. c #B3765A",
"k. c #B0775C",
"l. c #B2765C",
"z. c #B0765E",
"x. c #B2795E",
"c. c #B37A5F",
"v. c #B5795F",
"b. c #B8785D",
"n. c #A67765",
"m. c #A87562",
"M. c #AD7661",
"N. c #A87766",
"B. c #AE7860",
"V. c #AF7961",
"C. c #AD7963",
"Z. c #AF7863",
"A. c #AD7A67",
"S. c #AE7B66",
"D. c #AE7F6D",
"F. c #B37961",
"G. c #B27A61",
"H. c #B17962",
"J. c #B77B61",
"K. c #B37D63",
"L. c #B67D62",
"P. c #B77E63",
"I. c #B17A65",
"U. c #B37B64",
"Y. c #B27C64",
"T. c #B57D64",
"R. c #B77D67",
"E. c #B77F66",
"W. c #B67E67",
"Q. c #B87C62",
"!. c #B87F64",
"~. c #B97F67",
"^. c #B07D68",
"/. c #B77F68",
"(. c #B57E6A",
"). c #B3806D",
"_. c #BA8068",
"`. c #BB8169",
"'. c #BB836A",
"]. c #BC8368",
"[. c #BD836B",
"{. c #BE846C",
"}. c #BE866D",
"|. c #BD856E",
" X c #BD876F",
".X c #BF876E",
"XX c #B68372",
"oX c #BE8772",
"OX c #BF8971",
"+X c #BE8D7C",
"@X c #C0866E",
"#X c #C28870",
"$X c #C38B72",
"%X c #C08974",
"&X c #C0917F",
"*X c #CA9078",
/* pixels */
"&XD.).^.I.K.*.t ,.j.].;._ 2 M.%X",
"n.b m.2.h s 2 J U J p - e e l 7 ",
"+XN.A.A.M.p.*.5.l.J.l.7.1.F.F.1.",
"XXc v 1.-.-.f J J j.{ *.J E.K.C.",
"3 @ s s * @ o 2 - 5   . O 7.) : ",
"(.C.oXOXU.F.e.l.x.Q.e.4.*.K.K.p.",
") e X.) J ..e O 2 h &./ J 2 i e ",
"X * 7.) e { *.*.U J y.5.[.U.y.J ",
"J ;.'.@X[._._._.$XF._..X_.$X*X[.",
"B B 6 - * 2 J *.r ) ..7.5./ 2 % ",
"b.j.f.j.x.Q.'.|.7.~.p...U.l.&.K.",
"R S C U { L 5 - * s 7 h *.;.L { ",
"d.! S R ,.,.7.t.M.1.9.9.*.5.l.H ",
"s.E ! ,.j.x.~.|.$X9.-. .2 ..v.H ",
"Y N R ! S 5 4 h l  .....*.5.&.B ",
"m 6 M ! H i ..F.x I.-.f 5.p.f.J."
};
