/* XPM */
static char *fb5b6586c7954ac1b8bbb0030f49df00LWRyhqMFusG7CKK6[] = {
/* columns rows colors chars-per-pixel */
"16 16 253 2 ",
"   c #2F2E2A",
".  c #342520",
"X  c #332F2C",
"o  c #3D2D2E",
"O  c #363729",
"+  c #35312E",
"@  c #3F362D",
"#  c #383C2D",
"$  c #382F34",
"%  c #3E2D35",
"&  c #3D2E35",
"*  c #3F2E36",
"=  c #203234",
"-  c #243836",
";  c #2C3C3C",
":  c #323031",
">  c #373133",
",  c #313632",
"<  c #373632",
"1  c #3C3231",
"2  c #3D3533",
"3  c #3A3436",
"4  c #373238",
"5  c #3B363A",
"6  c #3C373B",
"7  c #3E343D",
"8  c #3D363D",
"9  c #3D393A",
"0  c #383E3A",
"q  c #3E3F39",
"w  c #383C3D",
"e  c #3B3F3E",
"r  c #3C3E3D",
"t  c #3D3F3E",
"y  c #42242E",
"u  c #4F2529",
"i  c #412B2D",
"p  c #502C2E",
"a  c #45342D",
"s  c #432F30",
"d  c #402F35",
"f  c #442F34",
"g  c #542D32",
"h  c #443031",
"j  c #403434",
"k  c #413535",
"l  c #433437",
"z  c #423636",
"x  c #483235",
"c  c #4A3437",
"v  c #403B37",
"b  c #463D36",
"n  c #493C33",
"m  c #493F36",
"M  c #43323A",
"N  c #41343B",
"B  c #40373A",
"V  c #45313C",
"C  c #44353C",
"Z  c #4D3739",
"A  c #413B3B",
"S  c #403C39",
"D  c #433E3B",
"F  c #413B3F",
"G  c #44393D",
"H  c #473B3F",
"J  c #423E3D",
"K  c #483A3A",
"L  c #4C3A38",
"P  c #4E393E",
"I  c #4B3D3C",
"U  c #4A3F3D",
"Y  c #4D3F3E",
"T  c #523633",
"R  c #533037",
"E  c #523237",
"W  c #563236",
"Q  c #563339",
"!  c #563639",
"~  c #5A3338",
"^  c #5E333A",
"/  c #59313C",
"(  c #58373E",
")  c #533A3D",
"_  c #573A3E",
"`  c #533E3D",
"'  c #5B3D3F",
"]  c #5C3C3F",
"[  c #642F37",
"{  c #60393A",
"}  c #623E3E",
"|  c #2D403A",
" . c #404034",
".. c #494037",
"X. c #4B4137",
"o. c #43403B",
"O. c #444438",
"+. c #42413F",
"@. c #49413F",
"#. c #46483A",
"$. c #47483A",
"%. c #5F413F",
"&. c #58453E",
"*. c #58453F",
"=. c #52483E",
"-. c #353F40",
";. c #4B3542",
":. c #413A41",
">. c #413F40",
",. c #413F42",
"<. c #403E43",
"1. c #443E40",
"2. c #473E41",
"3. c #463C45",
"4. c #473D46",
"5. c #493A41",
"6. c #4B3A40",
"7. c #4A3E40",
"8. c #493C43",
"9. c #4F3F40",
"0. c #4A3F47",
"q. c #503941",
"w. c #503B42",
"e. c #533D40",
"r. c #533C42",
"t. c #573E41",
"y. c #533C44",
"u. c #533E45",
"i. c #523F45",
"p. c #513D46",
"a. c #563F45",
"s. c #553E46",
"d. c #563F47",
"f. c #623E42",
"g. c #663D41",
"h. c #653A44",
"j. c #6B3C42",
"k. c #723A43",
"l. c #274440",
"z. c #264643",
"x. c #354542",
"c. c #3C4540",
"v. c #3E4941",
"b. c #424041",
"n. c #434142",
"m. c #474340",
"M. c #404541",
"N. c #434542",
"B. c #444540",
"V. c #414745",
"C. c #4B4140",
"Z. c #4A4142",
"A. c #4D4141",
"S. c #484540",
"D. c #484441",
"F. c #4B4643",
"G. c #484244",
"H. c #4D4145",
"J. c #4E4244",
"K. c #4F4345",
"L. c #494544",
"P. c #4D4445",
"I. c #4F4544",
"U. c #4E4644",
"Y. c #474946",
"T. c #494843",
"R. c #4B4A45",
"E. c #4A434A",
"W. c #474D4D",
"Q. c #4C4A4B",
"!. c #4E4A4B",
"~. c #4A4C49",
"^. c #494F4B",
"/. c #4D4C48",
"(. c #4D484C",
"). c #4F4A4E",
"_. c #504041",
"`. c #504043",
"'. c #504242",
"]. c #524242",
"[. c #544041",
"{. c #574543",
"}. c #554643",
"|. c #514144",
" X c #544145",
".X c #574144",
"XX c #574345",
"oX c #534747",
"OX c #544646",
"+X c #5D4042",
"@X c #5A4145",
"#X c #5E4447",
"$X c #514947",
"%X c #504448",
"&X c #5B4049",
"*X c #5B4248",
"=X c #5F444B",
"-X c #5C474C",
";X c #514849",
":X c #534A4B",
">X c #554949",
",X c #53484C",
"<X c #524C4C",
"1X c #504F4D",
"2X c #5B4949",
"3X c #594B4A",
"4X c #5A4F4B",
"5X c #594A4D",
"6X c #5E494E",
"7X c #5B4F4F",
"8X c #4D5049",
"9X c #53524D",
"0X c #54514C",
"qX c #54534F",
"wX c #5E534F",
"eX c #514A52",
"rX c #564950",
"tX c #5F4C52",
"yX c #565050",
"uX c #5A5456",
"iX c #5C5754",
"pX c #5C5B59",
"aX c #614146",
"sX c #614247",
"dX c #604347",
"fX c #624247",
"gX c #684947",
"hX c #61474A",
"jX c #644749",
"kX c #64454B",
"lX c #67474A",
"zX c #6B4449",
"xX c #63494A",
"cX c #614C4B",
"vX c #62494F",
"bX c #614B4E",
"nX c #65484C",
"mX c #654A4F",
"MX c #6C484C",
"NX c #794B4E",
"BX c #614750",
"VX c #6A4950",
"CX c #6C4B52",
"ZX c #694C51",
"AX c #6E4F55",
"SX c #625050",
"DX c #635457",
"FX c #605657",
"GX c #6B5154",
"HX c #6E555B",
"JX c #775554",
"KX c #6D5D60",
"LX c #676360",
/* pixels */
"7 :.4 $ y.*Xy.|.w c.(.N ;.3.= z.",
"eXE.F H d.*X-XiX, M.m.* V 4.; l.",
"<.5 8.tXBX.X|.'.< 9XH.* * 7 -.- ",
"6 3 ,XKXHXmXXXk /.LXDX6Xd.5.W.x.",
"H.2.Q.yXvXCXkXs q 8XXXhX/ y w | ",
"%XP.L.C.@XVXdXs 9X9XSXAXh.R F.v.",
"+.F._..XZXGX2X@.iX[.kXf.Q _ I q ",
"+ 2 o x dX#X[.2XwXL {.W g zX{.b ",
"K 2 q ;Xa.R R L @.o.` ~ [ j..  .",
"A.'.qXiXvXf.t.i T.T.cXzXk.NXa O.",
"+ S XXA.c e..X2 @.@.xXMXg.JX&.=.",
"  F.7X|.f P 5X;XS k t.] p gX&.X.",
"C.<XpXuXp.w.s.8.B.B.[.t.u { n O ",
"%XJ w b.6.6.w.H V.^.>XnX^ } ..# ",
"Q.9 : > M y.rX).t ^.A.hXf.%...$.",
"b.b.H A * C 0.b.w L.k ) ! T @ $."
};
