/* XPM */
static char *_6d4673142334ab9b984c7612f7c62165I9n1a1juPFMhufy[] = {
/* columns rows colors chars-per-pixel */
"16 16 213 2 ",
"   c #3B1E05",
".  c #352005",
"X  c #382103",
"o  c #3F2506",
"O  c #34240D",
"+  c #332C18",
"@  c #323017",
"#  c #3F3B1F",
"$  c #3A3421",
"%  c #3B3621",
"&  c #4F2A03",
"*  c #442B0A",
"=  c #412A0C",
"-  c #492A09",
";  c #482A0F",
":  c #492E0C",
">  c #562B06",
",  c #592F03",
"<  c #572D09",
"1  c #573102",
"2  c #5D3204",
"3  c #51320B",
"4  c #583309",
"5  c #5D360A",
"6  c #5C370C",
"7  c #5E360C",
"8  c #562E14",
"9  c #423717",
"0  c #453A17",
"q  c #5D3211",
"w  c #583912",
"e  c #5B3813",
"r  c #5B3E12",
"t  c #553B1A",
"y  c #573B1A",
"u  c #543E1B",
"i  c #5D3E19",
"p  c #633503",
"a  c #6B3703",
"s  c #6F3A03",
"d  c #643709",
"f  c #653C0B",
"g  c #63380E",
"h  c #6D3E0B",
"j  c #703E03",
"k  c #783D00",
"l  c #693716",
"z  c #623D13",
"x  c #713C18",
"c  c #4A3D22",
"v  c #543820",
"b  c #5E4519",
"n  c #7D4100",
"m  c #7A4305",
"M  c #764008",
"N  c #74420F",
"B  c #79440A",
"V  c #78450F",
"C  c #7C4909",
"Z  c #6E4613",
"A  c #694015",
"S  c #6F4317",
"D  c #66431F",
"F  c #6B4518",
"G  c #6D471C",
"H  c #734313",
"J  c #754412",
"K  c #7F4712",
"L  c #7A4714",
"P  c #7D4514",
"I  c #784E17",
"U  c #76451E",
"Y  c #78471A",
"T  c #7D4719",
"R  c #73481A",
"E  c #73491C",
"W  c #784918",
"Q  c #794B1B",
"!  c #784D1B",
"~  c #7C4A1F",
"^  c #7A551F",
"/  c #49452F",
"(  c #524025",
")  c #5D4122",
"_  c #584524",
"`  c #5F4525",
"'  c #5C4427",
"]  c #5D4828",
"[  c #5F4E2B",
"{  c #4E4E35",
"}  c #624320",
"|  c #624322",
" . c #694221",
".. c #6A4720",
"X. c #694723",
"o. c #6D4721",
"O. c #6B4625",
"+. c #674820",
"@. c #664B27",
"#. c #684922",
"$. c #6F4E23",
"%. c #624D2A",
"&. c #6C4C29",
"*. c #69492F",
"=. c #794622",
"-. c #734922",
";. c #754E21",
":. c #734E26",
">. c #7A4920",
",. c #794E23",
"<. c #7B4F25",
"1. c #6C552E",
"2. c #775120",
"3. c #7D5422",
"4. c #785327",
"5. c #7E5327",
"6. c #795823",
"7. c #795B25",
"8. c #75522B",
"9. c #75502D",
"0. c #72562C",
"q. c #79562A",
"w. c #674D30",
"e. c #715634",
"r. c #7D5834",
"t. c #795E35",
"y. c #844604",
"u. c #8D4A02",
"i. c #85450B",
"p. c #844909",
"a. c #824C0A",
"s. c #80490D",
"d. c #9B5302",
"f. c #9C5503",
"g. c #94560B",
"h. c #874F15",
"j. c #874819",
"k. c #824F18",
"l. c #854F1D",
"z. c #845213",
"x. c #895010",
"c. c #8B5517",
"v. c #815218",
"b. c #86551B",
"n. c #8A5418",
"m. c #8B581E",
"M. c #9A5611",
"N. c #905619",
"B. c #9E5C1B",
"V. c #A65C04",
"C. c #AE5A00",
"Z. c #A85C0D",
"A. c #B26207",
"S. c #B86203",
"D. c #B16309",
"F. c #B7690A",
"G. c #A56116",
"H. c #A16416",
"J. c #AB6216",
"K. c #A5631E",
"L. c #875822",
"P. c #8A5C21",
"I. c #8D5D26",
"U. c #805728",
"Y. c #865628",
"T. c #8B5B2A",
"R. c #8D5E2C",
"E. c #925126",
"W. c #935A21",
"Q. c #9C5F22",
"!. c #91552E",
"~. c #955F2C",
"^. c #815C30",
"/. c #8A5A32",
"(. c #895B37",
"). c #8E5C39",
"_. c #975F30",
"`. c #995E36",
"'. c #A55926",
"]. c #A35C2D",
"[. c #8D642C",
"{. c #956025",
"}. c #9A6323",
"|. c #9E6020",
" X c #956029",
".X c #96632A",
"XX c #90612C",
"oX c #9E652B",
"OX c #9A612D",
"+X c #806334",
"@X c #896231",
"#X c #8F6334",
"$X c #836B30",
"%X c #9E6135",
"&X c #90663B",
"*X c #A76220",
"=X c #A56424",
"-X c #A56628",
";X c #B26B22",
":X c #B97127",
">X c #BC702C",
",X c #A46133",
"<X c #A2683E",
"1X c #BD6A37",
"2X c #AF7031",
"3X c #C0690A",
"4X c #DB7803",
"5X c #C27419",
"6X c #D07517",
"7X c #E17D08",
"8X c #C77526",
"9X c #A86E48",
"0X c #D78023",
/* pixels */
"3 r k Z 7 p.V 6.5.t.[.B.:.X.<.o.",
"o p j z U L.~ M.;.4.}.J.;XR.8.| ",
"& a s p.E.>.i <.&X2.W.5.OX>X5.*.",
"2 , y.f.F | G 1X%XI.v.' 9XOX%.&.",
"4 n m d.f.b.7.5.] @XQ.z./.-X+.c.",
"9 C u.d.Z.l.z.I *X;X+X0XQ.8X=XA ",
"O 1 b Z m.'.Q ! G.-./ m.~.L..X~.",
"> 7 # M $XT.U.q.y ).O.c.{ w.1.^.",
"g l 5 f 3.H.3X5X#X(.^.oX#Xr.v [ ",
"a 8 e w B V.A.3X8X.X[.K.2X@.' +.",
"  * h u P x.v.F.6X:XG.m.Y.e.c S ",
": k m ; =.R c.7XF.L.:.c /.<X' L ",
"* k o 3 T  .g.4Xx # 0.8.%X`.v ! ",
"@   + J i.H D.C ,X5.3.c t 9.% | ",
": X q j.f p.S.Y ].~.i _ _ y #.E ",
"  & x < 0 b C.L !.l.J D E ~ s.A "
};
