/* XPM */
static char *_13f13b126f948f99fcdcd7e09c09242aGRGd7EjMhjjXehD[] = {
/* columns rows colors chars-per-pixel */
"16 16 153 2 ",
"   c #23270E",
".  c #24280F",
"X  c #202312",
"o  c #242712",
"O  c #212315",
"+  c #222514",
"@  c #242714",
"#  c #242716",
"$  c #252813",
"%  c #262A13",
"&  c #262914",
"*  c #272A15",
"=  c #252817",
"-  c #272A17",
";  c #292C17",
":  c #27291B",
">  c #282B18",
",  c #282B1A",
"<  c #292C19",
"1  c #2A2D18",
"2  c #2B2F18",
"3  c #2B2E19",
"4  c #2C2F1A",
"5  c #2A2D1C",
"6  c #2A2C1E",
"7  c #2C2F1C",
"8  c #2C2F1E",
"9  c #2E3315",
"0  c #2D3118",
"q  c #2C3019",
"w  c #2D301B",
"e  c #2F331A",
"r  c #2E321B",
"t  c #2D301D",
"y  c #2E311C",
"u  c #2F331C",
"i  c #2D301F",
"p  c #2E311E",
"a  c #2F321F",
"s  c #303419",
"d  c #313618",
"f  c #323719",
"g  c #31351A",
"h  c #32361B",
"j  c #30331E",
"k  c #31351C",
"l  c #30341D",
"z  c #33371C",
"x  c #32361D",
"c  c #31341F",
"v  c #33371E",
"b  c #333818",
"n  c #343919",
"m  c #353A1A",
"M  c #363B1D",
"N  c #35391E",
"B  c #34381F",
"V  c #363A1F",
"C  c #373C1C",
"Z  c #373C1E",
"A  c #383D1D",
"S  c #383D1F",
"D  c #2C2E20",
"F  c #2D2F21",
"G  c #2E3120",
"H  c #2F3221",
"J  c #2E3022",
"K  c #2F3123",
"L  c #333720",
"P  c #333621",
"I  c #313423",
"U  c #323522",
"Y  c #343722",
"T  c #313325",
"R  c #323524",
"E  c #323426",
"W  c #343724",
"Q  c #343726",
"!  c #343821",
"~  c #373B20",
"^  c #363A21",
"/  c #353922",
"(  c #353823",
")  c #363A23",
"_  c #353825",
"`  c #363924",
"'  c #373B24",
"]  c #383C21",
"[  c #3A3F21",
"{  c #383C23",
"}  c #3A3E23",
"|  c #383B26",
" . c #393D24",
".. c #383C25",
"X. c #3B3F24",
"o. c #393D26",
"O. c #393C27",
"+. c #3B3F26",
"@. c #3A3D28",
"#. c #3B3F28",
"$. c #3B3E29",
"%. c #383A2C",
"&. c #3A3C2E",
"*. c #3C3E30",
"=. c #3B4020",
"-. c #3B4022",
";. c #3C4123",
":. c #3D4222",
">. c #3C4025",
",. c #3D4224",
"<. c #3E4325",
"1. c #3D4126",
"2. c #3C4027",
"3. c #3E4227",
"4. c #3F4426",
"5. c #3D4128",
"6. c #3C4029",
"7. c #3F4328",
"8. c #3D412A",
"9. c #3F432A",
"0. c #3E422B",
"q. c #404527",
"w. c #414626",
"e. c #404429",
"r. c #414628",
"t. c #424729",
"y. c #41452A",
"u. c #42462B",
"i. c #40442D",
"p. c #43472C",
"a. c #43482A",
"s. c #44492B",
"d. c #464B2B",
"f. c #44482D",
"g. c #454A2C",
"h. c #464B2D",
"j. c #44482F",
"k. c #464A2F",
"l. c #494E2E",
"z. c #434730",
"x. c #404234",
"c. c #444831",
"v. c #474B30",
"b. c #454932",
"n. c #474B32",
"m. c #494D32",
"M. c #484C33",
"N. c #494D34",
"B. c #4A4C3E",
"V. c #4D5232",
"C. c #4C5037",
"Z. c #50543B",
"A. c #535838",
/* pixels */
"B.I 4 B { w.t.v ` @.W L i.X.1.A.",
"&.G 4 v { :.1.X.L L I @.c.u.t.l.",
"8 I j ^ e.1.e.N.| 4 8 @.i.u.w.:.",
", I I { p.u.t.Z.#.* * L L Z X.n ",
"6 I p L p.t.1.M.L o , L j k S b ",
"G 8 & 9 { X.~ { 4 * j | o.Z :.S ",
"%.5 & 2 n Z ~ k j j I #.z.t.1.d.",
"x.F 4 v s Z X.v @.X.I ` c.u.w.V.",
"F j #.` 4.Z u.v.4 j ` ` 8.k.d.S ",
"O + I ^ u.1.N.C.v 4 p ^ 8.8.:.:.",
"R G o.~ k.{ 8.1.w $ o w B d d n ",
"G 6 p v t.:.t.1.j ; : w ^ B B S ",
"6 X o o B b { B ^ ` R ^ 1.f.k.w.",
"T = $   z 9 n w , v I u ` k.d.:.",
"F # , 9 9.4.k.k.& ; , p ^ >.-.C ",
"*.W | o.v.4.u.9.e ; t @.0.1.-.:."
};
